<svg xmlns="http://www.w3.org/2000/svg" width="12.589" height="13.835" viewBox="0 0 12.589 13.835"><defs><style>.a{stroke:#000;stroke-width:0.2px;}</style></defs><g transform="translate(-1.823 -0.4)"><path class="a" d="M12.673,7.576a.208.208,0,0,0,.16-.075c.1-.122,2.453-3,2.453-4.388a2.613,2.613,0,0,0-5.225,0c0,1.387,2.353,4.266,2.453,4.388A.209.209,0,0,0,12.673,7.576Zm0-6.663a2.2,2.2,0,0,1,2.2,2.2c0,.954-1.463,3-2.2,3.928-.736-.93-2.2-2.974-2.2-3.928A2.2,2.2,0,0,1,12.673.913Z" transform="translate(-4.555 0)"/><path class="a" d="M14.286,23.133,12,18.359a.207.207,0,0,0-.087-.092l-2.1-1.15a.2.2,0,0,0-.168-.014l-1.525.532L6.592,17.1a.2.2,0,0,0-.168.014l-2.1,1.15a.207.207,0,0,0-.087.092L1.948,23.133a.207.207,0,0,0,.186.3.209.209,0,0,0,.067-.011L5.125,22.41l2.924,1.008c.007,0,.013,0,.019,0a.2.2,0,0,0,.048,0,.2.2,0,0,0,.048,0c.007,0,.013,0,.019,0l2.924-1.008,2.924,1.008a.2.2,0,0,0,.067.011.206.206,0,0,0,.154-.069A.2.2,0,0,0,14.286,23.133Zm-6.376-.2-2.533-.873,1.284-4.494L7.911,18ZM4.579,18.6l1.611-.881L4.957,22.031l-2.423.835ZM8.324,18l1.248-.435,1.284,4.494-2.533.873Zm2.954,4.029-1.233-4.314,1.611.881L13.7,22.866Z" transform="translate(0 -9.293)"/></g></svg>