<svg id="Layer_1" data-name="Layer 1" xmlns="http://www.w3.org/2000/svg" viewBox="0 0 54.27 8.5"><defs><style>.cls-1{fill:#37bff0;}.cls-2{fill:#312722;}.cls-3{fill:#fff;}.cls-4{fill:none;stroke:#39bff0;stroke-miterlimit:10;stroke-width:0.4px;}</style></defs><path class="cls-1" d="M1.7,5.12a.2.2,0,0,1-.26.11c-.08,0-.09-.17,0-.28a.22.22,0,0,1,.26-.11.21.21,0,0,1,0,.28"/><path class="cls-1" d="M2.15,5.12a.2.2,0,0,1-.26.11c-.08,0-.09-.17,0-.28a.22.22,0,0,1,.26-.11.21.21,0,0,1,0,.28"/><path class="cls-1" d="M2.6,5.12a.2.2,0,0,1-.26.11c-.08,0-.09-.17,0-.28a.22.22,0,0,1,.26-.11.21.21,0,0,1,0,.28"/><path class="cls-1" d="M3.05,5.12a.24.24,0,0,1-.3.11.2.2,0,0,1,0-.28A.21.21,0,0,1,3,4.84a.2.2,0,0,1,0,.28"/><path class="cls-1" d="M3.5,5.12a.2.2,0,0,1-.26.11.2.2,0,0,1,0-.28.21.21,0,0,1,.25-.11.21.21,0,0,1,0,.28"/><path class="cls-1" d="M4,5.12c-.07.11-.18.16-.26.11a.21.21,0,0,1,0-.28.22.22,0,0,1,.26-.11.21.21,0,0,1,0,.28"/><path class="cls-1" d="M4.4,5.12c-.07.11-.18.16-.26.11A.21.21,0,0,1,4.1,5a.22.22,0,0,1,.26-.11.21.21,0,0,1,0,.28"/><path class="cls-1" d="M4.84,5.12c-.06.11-.17.16-.25.11a.21.21,0,0,1,0-.28.22.22,0,0,1,.26-.11.2.2,0,0,1,0,.28"/><path class="cls-1" d="M5.29,5.12a.24.24,0,0,1-.3.11c-.08,0-.09-.17,0-.28a.22.22,0,0,1,.26-.11.21.21,0,0,1,0,.28"/><path class="cls-1" d="M5.74,5.12a.2.2,0,0,1-.26.11c-.08,0-.09-.17,0-.28a.22.22,0,0,1,.26-.11.21.21,0,0,1,0,.28"/><path class="cls-1" d="M6.19,5.12a.2.2,0,0,1-.26.11c-.08,0-.09-.17,0-.28a.22.22,0,0,1,.26-.11.21.21,0,0,1,0,.28"/><path class="cls-1" d="M6.64,5.12a.24.24,0,0,1-.3.11c-.08,0-.09-.17,0-.28a.22.22,0,0,1,.26-.11.21.21,0,0,1,0,.28"/><path class="cls-1" d="M7.09,5.12a.2.2,0,0,1-.26.11c-.08,0-.09-.17,0-.28a.21.21,0,0,1,.25-.11.2.2,0,0,1,0,.28"/><path class="cls-1" d="M7.54,5.12a.2.2,0,0,1-.26.11.2.2,0,0,1,0-.28.17.17,0,1,1,.29.17"/><path class="cls-1" d="M8,5.12c-.07.11-.18.16-.26.11a.21.21,0,0,1,0-.28A.22.22,0,0,1,8,4.84a.21.21,0,0,1,0,.28"/><path class="cls-1" d="M8.44,5.12c-.07.11-.18.16-.26.11a.21.21,0,0,1,0-.28.22.22,0,0,1,.26-.11.21.21,0,0,1,0,.28"/><path class="cls-1" d="M8.84,5.12c-.06.11-.17.16-.25.11a.21.21,0,0,1,0-.28.22.22,0,0,1,.26-.11.2.2,0,0,1,0,.28"/><path class="cls-1" d="M9.29,5.12A.2.2,0,0,1,9,5.23C9,5.19,8.94,5.06,9,5a.22.22,0,0,1,.26-.11.21.21,0,0,1,0,.28"/><path class="cls-1" d="M9.74,5.12a.2.2,0,0,1-.26.11c-.08,0-.09-.17,0-.28a.22.22,0,0,1,.26-.11.21.21,0,0,1,0,.28"/><path class="cls-1" d="M10.19,5.12a.2.2,0,0,1-.26.11c-.08,0-.09-.17,0-.28a.22.22,0,0,1,.26-.11.21.21,0,0,1,0,.28"/><path class="cls-1" d="M10.64,5.12a.2.2,0,0,1-.26.11c-.08,0-.09-.17,0-.28a.21.21,0,0,1,.26-.11.21.21,0,0,1,0,.28"/><path class="cls-1" d="M11.09,5.12a.2.2,0,0,1-.26.11.2.2,0,0,1,0-.28.17.17,0,1,1,.29.17"/><path class="cls-1" d="M11.54,5.12c-.07.11-.18.16-.26.11a.2.2,0,0,1,0-.28.17.17,0,1,1,.29.17"/><path class="cls-1" d="M12,5.12c-.07.11-.18.16-.26.11a.21.21,0,0,1,0-.28A.22.22,0,0,1,12,4.84a.21.21,0,0,1,0,.28"/><path class="cls-1" d="M12.43,5.12c-.06.11-.17.16-.25.11a.21.21,0,0,1,0-.28.22.22,0,0,1,.26-.11.2.2,0,0,1,0,.28"/><path class="cls-1" d="M12.88,5.12c-.06.11-.17.16-.25.11s-.1-.17,0-.28a.22.22,0,0,1,.26-.11.2.2,0,0,1,0,.28"/><path class="cls-1" d="M13.33,5.12a.2.2,0,0,1-.26.11C13,5.19,13,5.06,13,5a.22.22,0,0,1,.26-.11.21.21,0,0,1,0,.28"/><path class="cls-1" d="M13.78,5.12a.2.2,0,0,1-.26.11c-.08,0-.09-.17,0-.28a.22.22,0,0,1,.26-.11.21.21,0,0,1,0,.28"/><path class="cls-1" d="M14.23,5.12a.2.2,0,0,1-.26.11c-.08,0-.09-.17,0-.28a.22.22,0,0,1,.26-.11.21.21,0,0,1,0,.28"/><path class="cls-1" d="M14.68,5.12a.2.2,0,0,1-.26.11c-.08,0-.09-.17,0-.28a.21.21,0,0,1,.26-.11.21.21,0,0,1,0,.28"/><path class="cls-1" d="M15.13,5.12a.2.2,0,0,1-.26.11.2.2,0,0,1,0-.28.17.17,0,1,1,.29.17"/><path class="cls-1" d="M15.58,5.12c-.07.11-.18.16-.26.11a.2.2,0,0,1,0-.28.17.17,0,1,1,.29.17"/><path class="cls-1" d="M16,5.12c-.07.11-.18.16-.26.11a.21.21,0,0,1,0-.28A.22.22,0,0,1,16,4.84a.21.21,0,0,1,0,.28"/><path class="cls-1" d="M34.2,5.91a.17.17,0,1,1-.29-.17c.07-.11.18-.16.26-.11a.2.2,0,0,1,0,.28"/><path class="cls-1" d="M34.65,5.91a.17.17,0,1,1-.29-.17.18.18,0,1,1,.29.17"/><path class="cls-1" d="M35.1,5.91a.21.21,0,0,1-.26.11.21.21,0,0,1,0-.28.2.2,0,0,1,.26-.11.21.21,0,0,1,0,.28"/><path class="cls-1" d="M35.55,5.91a.22.22,0,0,1-.26.11.21.21,0,0,1,0-.28.2.2,0,0,1,.26-.11.21.21,0,0,1,0,.28"/><path class="cls-1" d="M36,5.91a.22.22,0,0,1-.26.11.21.21,0,0,1,0-.28A.2.2,0,0,1,36,5.63a.21.21,0,0,1,0,.28"/><path class="cls-1" d="M36.45,5.91a.22.22,0,0,1-.26.11.21.21,0,0,1,0-.28.2.2,0,0,1,.26-.11.21.21,0,0,1,0,.28"/><path class="cls-1" d="M36.9,5.91a.22.22,0,0,1-.26.11.2.2,0,0,1,0-.28c.06-.11.17-.16.25-.11a.21.21,0,0,1,0,.28"/><path class="cls-1" d="M37.35,5.91a.22.22,0,0,1-.26.11.2.2,0,0,1,0-.28c.06-.11.17-.16.25-.11a.21.21,0,0,1,0,.28"/><path class="cls-1" d="M37.8,5.91a.22.22,0,0,1-.26.11.21.21,0,0,1,0-.28c.07-.11.18-.16.26-.11a.21.21,0,0,1,0,.28"/><path class="cls-1" d="M38.24,5.91A.17.17,0,1,1,38,5.74c.07-.11.18-.16.26-.11a.2.2,0,0,1,0,.28"/><path class="cls-1" d="M38.69,5.91a.17.17,0,1,1-.29-.17.18.18,0,1,1,.29.17"/><path class="cls-1" d="M39.14,5.91a.22.22,0,0,1-.26.11.21.21,0,0,1,0-.28.2.2,0,0,1,.26-.11.21.21,0,0,1,0,.28"/><path class="cls-1" d="M39.59,5.91a.22.22,0,0,1-.26.11.21.21,0,0,1,0-.28.2.2,0,0,1,.26-.11.21.21,0,0,1,0,.28"/><path class="cls-1" d="M40,5.91a.22.22,0,0,1-.26.11.21.21,0,0,1,0-.28A.2.2,0,0,1,40,5.63a.21.21,0,0,1,0,.28"/><path class="cls-1" d="M40.49,5.91a.22.22,0,0,1-.26.11.21.21,0,0,1,0-.28.2.2,0,0,1,.26-.11.21.21,0,0,1,0,.28"/><path class="cls-1" d="M40.94,5.91a.22.22,0,0,1-.26.11.2.2,0,0,1,0-.28c.06-.11.17-.16.25-.11a.21.21,0,0,1,0,.28"/><path class="cls-1" d="M41.39,5.91a.22.22,0,0,1-.26.11.2.2,0,0,1,0-.28c.06-.11.17-.16.25-.11a.21.21,0,0,1,0,.28"/><path class="cls-1" d="M41.84,5.91a.22.22,0,0,1-.26.11.21.21,0,0,1,0-.28c.07-.11.18-.16.26-.11a.21.21,0,0,1,0,.28"/><path class="cls-1" d="M42.28,5.91A.17.17,0,1,1,42,5.74a.18.18,0,1,1,.29.17"/><path class="cls-1" d="M42.73,5.91a.21.21,0,0,1-.25.11.23.23,0,0,1,.22-.39.2.2,0,0,1,0,.28"/><path class="cls-1" d="M43.18,5.91a.22.22,0,0,1-.26.11.21.21,0,0,1,0-.28.2.2,0,0,1,.26-.11.21.21,0,0,1,0,.28"/><path class="cls-1" d="M43.63,5.91a.22.22,0,0,1-.26.11.21.21,0,0,1,0-.28.2.2,0,0,1,.26-.11.21.21,0,0,1,0,.28"/><path class="cls-1" d="M44.08,5.91a.22.22,0,0,1-.26.11.21.21,0,0,1,0-.28.2.2,0,0,1,.26-.11.21.21,0,0,1,0,.28"/><path class="cls-1" d="M44.53,5.91a.22.22,0,0,1-.26.11.21.21,0,0,1,0-.28.2.2,0,0,1,.26-.11.21.21,0,0,1,0,.28"/><path class="cls-1" d="M45,5.91a.22.22,0,0,1-.26.11.2.2,0,0,1,0-.28c.06-.11.17-.16.25-.11a.21.21,0,0,1,0,.28"/><path class="cls-1" d="M45.43,5.91a.22.22,0,0,1-.26.11.2.2,0,0,1,0-.28c.06-.11.17-.16.25-.11a.21.21,0,0,1,0,.28"/><path class="cls-1" d="M45.88,5.91a.22.22,0,0,1-.26.11.21.21,0,0,1,0-.28c.07-.11.18-.16.26-.11a.21.21,0,0,1,0,.28"/><path class="cls-1" d="M46.32,5.91A.17.17,0,1,1,46,5.74a.18.18,0,1,1,.29.17"/><path class="cls-1" d="M46.77,5.91a.21.21,0,0,1-.25.11.23.23,0,0,1,.22-.39.2.2,0,0,1,0,.28"/><path class="cls-1" d="M47.22,5.91A.22.22,0,0,1,47,6a.21.21,0,0,1,0-.28.2.2,0,0,1,.26-.11.21.21,0,0,1,0,.28"/><path class="cls-1" d="M47.67,5.91a.22.22,0,0,1-.26.11.21.21,0,0,1,0-.28.2.2,0,0,1,.26-.11.21.21,0,0,1,0,.28"/><path class="cls-1" d="M48.12,5.91a.22.22,0,0,1-.26.11.21.21,0,0,1,0-.28.2.2,0,0,1,.26-.11.21.21,0,0,1,0,.28"/><path class="cls-1" d="M48.57,5.91a.22.22,0,0,1-.26.11.21.21,0,0,1,0-.28.2.2,0,0,1,.26-.11.21.21,0,0,1,0,.28"/><path class="cls-1" d="M49,5.91a.22.22,0,0,1-.26.11.2.2,0,0,1,0-.28c.06-.11.17-.16.25-.11a.21.21,0,0,1,0,.28"/><path class="cls-1" d="M49.47,5.91a.22.22,0,0,1-.26.11.21.21,0,0,1,0-.28c.07-.11.18-.16.26-.11a.21.21,0,0,1,0,.28"/><path class="cls-1" d="M49.92,5.91a.22.22,0,0,1-.26.11.21.21,0,0,1,0-.28c.07-.11.18-.16.26-.11a.21.21,0,0,1,0,.28"/><path class="cls-1" d="M50.36,5.91a.17.17,0,1,1-.29-.17.18.18,0,1,1,.29.17"/><path class="cls-1" d="M50.81,5.91a.21.21,0,0,1-.25.11.23.23,0,0,1,.22-.39.21.21,0,0,1,0,.28"/><path class="cls-1" d="M51.26,5.91A.22.22,0,0,1,51,6a.21.21,0,0,1,0-.28.2.2,0,0,1,.26-.11.21.21,0,0,1,0,.28"/><path class="cls-1" d="M51.71,5.91a.22.22,0,0,1-.26.11.21.21,0,0,1,0-.28.2.2,0,0,1,.26-.11.21.21,0,0,1,0,.28"/><path class="cls-1" d="M52.16,5.91A.22.22,0,0,1,51.9,6a.21.21,0,0,1,0-.28.2.2,0,0,1,.26-.11.21.21,0,0,1,0,.28"/><path class="cls-1" d="M52.61,5.91a.22.22,0,0,1-.26.11.24.24,0,0,1,.23-.39.21.21,0,0,1,0,.28"/><path class="cls-1" d="M53.06,5.91A.22.22,0,0,1,52.8,6a.2.2,0,0,1,0-.28c.06-.11.17-.16.25-.11a.21.21,0,0,1,0,.28"/><path class="cls-1" d="M53.51,5.91a.22.22,0,0,1-.26.11.21.21,0,0,1,0-.28c.07-.11.18-.16.26-.11a.21.21,0,0,1,0,.28"/><path class="cls-1" d="M54,5.91A.22.22,0,0,1,53.7,6a.21.21,0,0,1,0-.28c.07-.11.18-.16.26-.11a.21.21,0,0,1,0,.28"/><path class="cls-1" d="M50.81,5.35a.21.21,0,0,1-.25.11.23.23,0,0,1,.22-.39c.08,0,.09.17,0,.28"/><path class="cls-1" d="M50.36,5.35a.17.17,0,1,1-.29-.17.2.2,0,0,1,.26-.11.2.2,0,0,1,0,.28"/><path class="cls-1" d="M51.22,5.35a.22.22,0,0,1-.26.11.21.21,0,0,1,0-.28.2.2,0,0,1,.26-.11c.08,0,.09.17,0,.28"/><path class="cls-1" d="M51.67,5.35a.22.22,0,0,1-.26.11.21.21,0,0,1,0-.28.2.2,0,0,1,.26-.11c.08,0,.09.17,0,.28"/><path class="cls-1" d="M52.12,5.35a.22.22,0,0,1-.26.11.21.21,0,0,1,0-.28.2.2,0,0,1,.26-.11c.08,0,.09.17,0,.28"/><path class="cls-1" d="M52.57,5.35a.22.22,0,0,1-.26.11.2.2,0,0,1,0-.28c.06-.11.17-.16.25-.11s.1.17,0,.28"/><path class="cls-1" d="M53,5.35a.22.22,0,0,1-.26.11.2.2,0,0,1,0-.28c.06-.11.17-.16.25-.11a.21.21,0,0,1,0,.28"/><path class="cls-1" d="M53.47,5.35a.22.22,0,0,1-.26.11.21.21,0,0,1,0-.28c.07-.11.18-.16.26-.11a.21.21,0,0,1,0,.28"/><path class="cls-1" d="M53.91,5.35a.17.17,0,1,1-.29-.17c.07-.11.18-.16.26-.11a.2.2,0,0,1,0,.28"/><path class="cls-1" d="M47.82,3.1c-.08-.05-.09-.28,0-.39a.2.2,0,0,1,.26-.11.21.21,0,0,1,0,.28c-.06.1-.18.27-.26.22"/><path class="cls-1" d="M48.27,3.1a.36.36,0,0,1,0-.39c.06-.11.17-.16.25-.11a.2.2,0,0,1,0,.28c-.06.1-.18.27-.26.22"/><path class="cls-1" d="M48.72,3.1a.36.36,0,0,1,0-.39c.06-.11.17-.16.25-.11a.21.21,0,0,1,0,.28c-.06.1-.18.27-.26.22"/><path class="cls-1" d="M49.17,3.1c-.08-.05-.1-.28,0-.39s.18-.16.26-.11a.21.21,0,0,1,0,.28c-.07.1-.18.27-.26.22"/><path class="cls-1" d="M49.62,3.1c-.08-.05-.1-.28,0-.39s.18-.16.26-.11a.2.2,0,0,1,0,.28c-.06.1-.17.27-.25.22"/><path class="cls-1" d="M50.07,3.1c-.08-.05-.1-.28,0-.39a.2.2,0,0,1,.26-.11.2.2,0,0,1,0,.28c-.06.1-.17.27-.25.22"/><path class="cls-1" d="M50.51,3.1c-.08-.05-.09-.28,0-.39a.2.2,0,0,1,.26-.11.21.21,0,0,1,0,.28c-.06.1-.17.27-.26.22"/><path class="cls-1" d="M51,3.1c-.08-.05-.09-.28,0-.39a.2.2,0,0,1,.26-.11.21.21,0,0,1,0,.28c-.06.1-.18.27-.26.22"/><path class="cls-2" d="M47.86,3.77c-.08,0-.09-.28,0-.39a.21.21,0,0,1,.26-.11.21.21,0,0,1,0,.28c-.06.11-.18.27-.26.22"/><path class="cls-1" d="M48.27,3.77c-.08,0-.1-.28,0-.39a.17.17,0,1,1,.29.17c-.06.11-.18.27-.26.22"/><path class="cls-1" d="M48.72,3.77c-.08,0-.1-.28,0-.39a.2.2,0,0,1,.25-.11.21.21,0,0,1,0,.28c-.06.11-.18.27-.26.22"/><path class="cls-1" d="M49.17,3.77c-.08,0-.1-.28,0-.39a.21.21,0,0,1,.26-.11.21.21,0,0,1,0,.28c-.07.11-.18.27-.26.22"/><path class="cls-1" d="M49.62,3.77c-.08,0-.1-.28,0-.39a.21.21,0,0,1,.26-.11.2.2,0,0,1,0,.28c-.06.11-.17.27-.25.22"/><path class="cls-1" d="M50.07,3.77c-.08,0-.1-.28,0-.39a.21.21,0,0,1,.26-.11.2.2,0,0,1,0,.28c-.06.11-.17.27-.25.22"/><path class="cls-1" d="M50.51,3.77c-.08,0-.09-.28,0-.39a.21.21,0,0,1,.26-.11.21.21,0,0,1,0,.28c-.06.11-.17.27-.26.22"/><path class="cls-1" d="M51,3.77c-.08,0-.09-.28,0-.39a.21.21,0,0,1,.26-.11.21.21,0,0,1,0,.28c-.06.11-.18.27-.26.22"/><path class="cls-1" d="M50.77,4.79a.21.21,0,0,1-.26.11.21.21,0,0,1,0-.28.2.2,0,0,1,.26-.11c.08,0,.09.17,0,.28"/><path class="cls-1" d="M50.32,4.79a.21.21,0,0,1-.25.11.21.21,0,0,1,0-.28.2.2,0,0,1,.26-.11.2.2,0,0,1,0,.28"/><path class="cls-1" d="M49.87,4.79a.21.21,0,0,1-.25.11.21.21,0,0,1,0-.28c.07-.11.18-.16.26-.11a.2.2,0,0,1,0,.28"/><path class="cls-1" d="M51.22,4.79A.22.22,0,0,1,51,4.9a.21.21,0,0,1,0-.28.2.2,0,0,1,.26-.11c.08,0,.09.17,0,.28"/><path class="cls-1" d="M51.67,4.79a.22.22,0,0,1-.26.11.21.21,0,0,1,0-.28.2.2,0,0,1,.26-.11c.08,0,.09.17,0,.28"/><path class="cls-1" d="M52.12,4.79a.22.22,0,0,1-.26.11.21.21,0,0,1,0-.28.2.2,0,0,1,.26-.11c.08,0,.09.17,0,.28"/><path class="cls-1" d="M52.57,4.79a.22.22,0,0,1-.26.11.2.2,0,0,1,0-.28c.06-.11.17-.16.25-.11s.1.17,0,.28"/><path class="cls-1" d="M53,4.79a.22.22,0,0,1-.26.11.2.2,0,0,1,0-.28c.06-.11.17-.16.25-.11a.21.21,0,0,1,0,.28"/><path class="cls-1" d="M53.47,4.79a.22.22,0,0,1-.26.11.21.21,0,0,1,0-.28c.07-.11.18-.16.26-.11a.21.21,0,0,1,0,.28"/><path class="cls-1" d="M53.91,4.79a.21.21,0,0,1-.25.11.21.21,0,0,1,0-.28c.07-.11.18-.16.26-.11a.2.2,0,0,1,0,.28"/><polygon class="cls-3" points="50.5 5.6 16.61 5.6 11.56 0.1 45 0.1 50.5 5.6"/><polygon class="cls-1" points="51.4 2.57 3.03 2.57 1.46 0.89 49.38 0.89 51.4 2.57"/><polygon class="cls-1" points="46.63 3.93 0.65 3.93 0.08 3.11 45.64 3.11 46.63 3.93"/><polygon class="cls-1" points="45.64 4.73 1.21 4.74 1.21 4.71 45.64 4.7 45.64 4.73"/><polygon class="cls-1" points="53.75 4.59 32.54 4.59 31.87 3.8 52.74 3.8 53.75 4.59"/><line class="cls-4" x1="1.23" y1="5.42" x2="43.08" y2="5.42"/><polygon class="cls-1" points="52.97 7.62 2.69 7.62 1.24 6.05 51.17 6.05 52.97 7.62"/><polygon class="cls-3" points="53.87 8.4 3.48 8.4 2.69 7.62 52.97 7.62 53.87 8.4"/></svg>