<?xml version="1.0" encoding="utf-8"?>
<!-- Generator: Adobe Illustrator 25.2.0, SVG Export Plug-In . SVG Version: 6.00 Build 0)  -->
<svg version="1.1" id="Layer_1" xmlns="http://www.w3.org/2000/svg" xmlns:xlink="http://www.w3.org/1999/xlink" x="0px" y="0px"
	 viewBox="0 0 54.3 8.5" style="enable-background:new 0 0 54.3 8.5;" xml:space="preserve">
<style type="text/css">
	.st0{display:none;}
	.st1{display:inline;fill:#E0E0E0;}
	.st2{display:inline;fill:#312722;}
	.st3{fill:#0E8537;}
	.st4{fill:#FFFFFF;}
	.st5{fill:#E0E0E0;}
	.st6{fill:none;stroke:#FFFFFF;stroke-width:0.4;stroke-miterlimit:10;}
	.st7{fill:#0A8537;}
</style>
<g class="st0">
	<path class="st1" d="M1.8,5.1C1.7,5.2,1.6,5.3,1.5,5.2C1.5,5.2,1.5,5.1,1.5,5c0-0.1,0.2-0.1,0.2-0.1C1.8,5,1.8,5.1,1.8,5.1"/>
	<path class="st1" d="M2.2,5.1C2.2,5.2,2.1,5.3,2,5.2C1.9,5.2,1.9,5,2,5c0-0.1,0.2-0.1,0.3-0.1C2.3,4.9,2.3,5,2.2,5.1"/>
	<path class="st1" d="M2.7,5.1c0,0.1-0.2,0.2-0.3,0.1C2.3,5.1,2.3,5,2.4,4.9c0.1,0,0.1-0.1,0.2-0.1C2.7,4.9,2.7,5,2.7,5.1"/>
	<path class="st1" d="M3.1,5.1C3.1,5.2,2.9,5.3,2.8,5.2C2.7,5.1,2.8,5,2.9,4.9c0.1,0,0.1-0.1,0.2-0.1C3.1,4.9,3.1,5,3.1,5.1"/>
	<path class="st1" d="M3.6,5.1c0,0.1-0.2,0.2-0.3,0.1C3.2,5.2,3.2,5,3.3,5c0-0.1,0.2-0.1,0.2-0.1C3.6,4.9,3.6,5,3.6,5.1"/>
	<path class="st1" d="M4,5.1C3.9,5.2,3.8,5.3,3.8,5.2C3.7,5.2,3.7,5,3.8,5c0-0.1,0.2-0.1,0.2-0.1C4.1,4.9,4.1,5,4,5.1"/>
	<path class="st1" d="M4.5,5.1c0,0.1-0.2,0.2-0.3,0.1C4.1,5.1,4.1,5,4.2,4.9c0.1,0,0.1-0.1,0.2-0.1C4.5,4.9,4.5,5,4.5,5.1"/>
	<path class="st1" d="M4.9,5.1c0,0.1-0.2,0.2-0.3,0.1C4.6,5.1,4.6,5,4.7,4.9c0.1,0,0.1-0.1,0.2-0.1C5,4.9,5,5,4.9,5.1"/>
	<path class="st1" d="M5.4,5.1C5.3,5.2,5.2,5.3,5.1,5.2C5,5.2,5,5.1,5,5c0-0.1,0.2-0.1,0.2-0.1c0.1,0.1,0.1,0.2,0,0.3"/>
	<path class="st1" d="M5.8,5.1C5.8,5.2,5.6,5.3,5.6,5.2C5.5,5.2,5.5,5,5.6,5c0-0.1,0.2-0.1,0.3-0.1C5.9,4.9,5.9,5,5.8,5.1"/>
	<path class="st1" d="M6.3,5.1C6.2,5.2,6.1,5.3,6,5.2C6,5.2,6,5.1,6,5c0-0.1,0.2-0.1,0.3-0.1C6.3,5,6.3,5.1,6.3,5.1"/>
	<path class="st1" d="M6.7,5.1C6.7,5.2,6.5,5.3,6.4,5.2C6.3,5.1,6.3,5,6.4,4.9c0.1,0,0.1-0.1,0.2-0.1C6.7,4.9,6.7,5,6.7,5.1"/>
	<path class="st1" d="M7.2,5.1c0,0.1-0.2,0.2-0.3,0.1C6.8,5.2,6.8,5,6.9,5c0-0.1,0.2-0.1,0.2-0.1C7.2,4.9,7.2,5,7.2,5.1"/>
	<path class="st1" d="M7.6,5.1C7.5,5.2,7.4,5.3,7.4,5.2C7.3,5.2,7.3,5,7.4,5c0-0.1,0.2-0.1,0.3-0.1C7.7,4.9,7.7,5,7.6,5.1"/>
	<path class="st1" d="M8.1,5.1C8,5.2,7.9,5.3,7.8,5.2C7.7,5.1,7.7,5,7.8,4.9C7.9,4.9,7.9,4.8,8,4.8C8.1,4.9,8.1,5,8.1,5.1"/>
	<path class="st1" d="M8.5,5.1c0,0.1-0.2,0.2-0.3,0.1C8.2,5.1,8.2,5,8.3,4.9c0.1,0,0.1-0.1,0.2-0.1C8.5,4.9,8.5,5,8.5,5.1"/>
	<path class="st1" d="M8.9,5.1c0,0.1-0.1,0.2-0.2,0.2c-0.1,0-0.2-0.1-0.2-0.2c0-0.1,0-0.1,0.1-0.2c0-0.1,0.2-0.1,0.2-0.1
		C8.9,5,8.9,5.1,8.9,5.1"/>
	<path class="st1" d="M9.4,5.1C9.3,5.2,9.2,5.3,9.1,5.2C9,5.2,9,5,9.1,5c0-0.1,0.2-0.1,0.3-0.1C9.4,4.9,9.4,5,9.4,5.1"/>
	<path class="st1" d="M9.8,5.1C9.7,5.2,9.6,5.3,9.6,5.2C9.5,5.1,9.5,5,9.5,4.9c0.1-0.1,0.1-0.1,0.2-0.1C9.8,4.9,9.8,5,9.8,5.1"/>
	<path class="st1" d="M10.2,5.1c0,0.1-0.2,0.2-0.3,0.1C9.9,5.1,9.9,5,10,4.9c0.1,0,0.1-0.1,0.2-0.1C10.3,4.9,10.3,5,10.2,5.1"/>
	<path class="st1" d="M10.7,5.1c0,0.1-0.2,0.2-0.3,0.1c-0.1-0.1-0.1-0.2,0-0.3c0-0.1,0.2-0.1,0.2-0.1C10.8,4.9,10.8,5,10.7,5.1"/>
	<path class="st1" d="M11.1,5.1c-0.1,0.1-0.2,0.2-0.3,0.1c-0.1-0.1-0.1-0.2,0-0.3c0-0.1,0.2-0.1,0.3-0.1C11.2,4.9,11.2,5,11.1,5.1"
		/>
	<path class="st1" d="M11.6,5.1c-0.1,0.1-0.2,0.2-0.2,0.1c-0.1-0.1-0.1-0.2,0-0.3c0.1-0.1,0.1-0.1,0.2-0.1C11.6,4.9,11.6,5,11.6,5.1
		"/>
	<path class="st1" d="M12,5.1c0,0.1-0.2,0.2-0.3,0.1c-0.1-0.1-0.1-0.2,0-0.3c0.1-0.1,0.2-0.1,0.3-0.1C12.1,4.9,12.1,5,12,5.1"/>
	<path class="st1" d="M12.5,5.1c0,0.1-0.2,0.2-0.3,0.1c-0.1-0.1-0.1-0.2,0-0.3c0-0.1,0.2-0.1,0.2-0.1C12.6,4.9,12.6,5,12.5,5.1"/>
	<path class="st1" d="M12.9,5.1c-0.1,0.1-0.2,0.2-0.3,0.1c-0.1-0.1-0.1-0.2,0-0.3c0-0.1,0.2-0.1,0.3-0.1C13,4.9,13,5,12.9,5.1"/>
	<path class="st1" d="M13.4,5.1c-0.1,0.1-0.2,0.2-0.2,0.1C13,5.1,13,5,13.1,4.9c0.1-0.1,0.1-0.1,0.2-0.1C13.4,4.9,13.4,5,13.4,5.1"
		/>
	<path class="st1" d="M13.8,5.1c0,0.1-0.2,0.2-0.3,0.1c-0.1-0.1-0.1-0.3,0-0.3c0.1,0,0.1-0.1,0.2-0.1C13.9,4.9,13.9,5,13.8,5.1"/>
	<path class="st1" d="M14.3,5.1c0,0.1-0.2,0.2-0.3,0.1C14,5.2,14,5.1,14,5c0-0.1,0.2-0.2,0.3-0.1C14.3,5,14.3,5.1,14.3,5.1"/>
	<path class="st1" d="M14.7,5.1c-0.1,0.1-0.2,0.2-0.3,0.1c-0.1-0.1-0.1-0.2,0-0.3c0-0.1,0.2-0.1,0.2-0.1C14.8,4.9,14.8,5,14.7,5.1"
		/>
	<path class="st1" d="M15.2,5.1c-0.1,0.1-0.2,0.2-0.2,0.1c-0.1-0.1-0.1-0.2,0-0.3c0.1-0.1,0.1-0.1,0.2-0.1C15.2,4.9,15.2,5,15.2,5.1
		"/>
	<path class="st1" d="M15.6,5.1c0,0.1-0.2,0.2-0.3,0.1c-0.1-0.1-0.1-0.3,0-0.3c0.1,0,0.1-0.1,0.2-0.1C15.7,4.9,15.7,5,15.6,5.1"/>
	<path class="st1" d="M16.1,5.1c0,0.1-0.2,0.2-0.3,0.1c-0.1-0.1-0.1-0.2,0-0.3c0-0.1,0.1-0.1,0.2-0.1C16.1,4.9,16.1,5,16.1,5.1"/>
	<path class="st1" d="M34.2,5.9C34.1,6,34,6.1,33.9,6c-0.1-0.1-0.1-0.2,0-0.3c0-0.1,0.2-0.1,0.3-0.1C34.3,5.7,34.3,5.8,34.2,5.9"/>
	<path class="st1" d="M34.6,5.9C34.6,6,34.5,6.1,34.4,6c-0.1-0.1-0.1-0.2,0-0.3c0-0.1,0.2-0.1,0.3-0.1C34.7,5.7,34.7,5.8,34.6,5.9"
		/>
	<path class="st1" d="M35.1,5.9C35,6,34.9,6.1,34.8,6c-0.1,0-0.1-0.2,0-0.3c0-0.1,0.2-0.1,0.3-0.1C35.2,5.7,35.2,5.8,35.1,5.9"/>
	<path class="st1" d="M35.5,5.9c0,0.1-0.2,0.2-0.3,0.1c-0.1,0-0.1-0.2,0-0.3c0-0.1,0.2-0.1,0.2-0.1C35.6,5.7,35.6,5.8,35.5,5.9"/>
	<path class="st1" d="M36,5.9C35.9,6,35.8,6.1,35.7,6c-0.1-0.1-0.1-0.2,0-0.3c0-0.1,0.2-0.1,0.3-0.1C36.1,5.7,36.1,5.8,36,5.9"/>
	<path class="st1" d="M36.4,5.9C36.4,6,36.3,6.1,36.2,6c-0.1-0.1-0.1-0.2,0-0.3c0-0.1,0.2-0.1,0.3-0.1C36.5,5.7,36.5,5.8,36.4,5.9"
		/>
	<path class="st1" d="M36.9,5.9c0,0.1-0.2,0.2-0.3,0.1c-0.1,0-0.1-0.2,0-0.3c0-0.1,0.2-0.1,0.3-0.1C37,5.7,37,5.8,36.9,5.9"/>
	<path class="st1" d="M37.3,5.9c0,0.1-0.2,0.2-0.3,0.1C37,6,37,5.8,37,5.7c0-0.1,0.2-0.1,0.3-0.1C37.3,5.7,37.3,5.8,37.3,5.9"/>
	<path class="st1" d="M37.8,5.9C37.7,6,37.6,6.1,37.5,6c-0.1-0.1-0.1-0.2,0-0.3c0-0.1,0.2-0.1,0.2-0.1C37.8,5.7,37.8,5.8,37.8,5.9"
		/>
	<path class="st1" d="M38.2,5.9C38.2,6,38.1,6.1,38,6c-0.1-0.1-0.1-0.2,0-0.3c0-0.1,0.2-0.1,0.3-0.1C38.3,5.7,38.3,5.8,38.2,5.9"/>
	<path class="st1" d="M38.7,5.9c0,0.1-0.2,0.2-0.3,0.1c-0.1,0-0.1-0.2,0-0.3c0-0.1,0.2-0.1,0.3-0.1C38.7,5.7,38.7,5.8,38.7,5.9"/>
	<path class="st1" d="M39.1,5.9C39.1,6,39,6.1,38.9,6c-0.1,0-0.1-0.2,0-0.3c0-0.1,0.2-0.1,0.3-0.1C39.2,5.7,39.2,5.8,39.1,5.9"/>
	<path class="st1" d="M39.6,5.9C39.5,6,39.4,6.1,39.3,6c-0.1-0.1-0.1-0.2,0-0.3c0-0.1,0.2-0.1,0.2-0.1C39.6,5.7,39.6,5.8,39.6,5.9"
		/>
	<path class="st1" d="M40,5.9C39.9,6,39.8,6.1,39.8,6c-0.1-0.1-0.1-0.2,0-0.3c0-0.1,0.2-0.1,0.2-0.1C40.1,5.7,40.1,5.8,40,5.9"/>
	<path class="st1" d="M40.5,5.9C40.4,6,40.3,6,40.2,6c-0.1,0-0.1-0.2,0-0.3c0-0.1,0.2-0.1,0.3-0.1C40.5,5.7,40.5,5.8,40.5,5.9"/>
	<path class="st1" d="M40.9,5.9c0,0.1-0.2,0.2-0.3,0.1c-0.1,0-0.1-0.2,0-0.3c0-0.1,0.2-0.1,0.3-0.1C41,5.7,41,5.8,40.9,5.9"/>
	<path class="st1" d="M41.4,5.9C41.3,6,41.2,6,41.1,6c-0.1-0.1-0.1-0.2,0-0.3c0-0.1,0.2-0.1,0.2-0.1C41.4,5.7,41.4,5.8,41.4,5.9"/>
	<path class="st1" d="M41.8,5.9C41.7,6,41.6,6.1,41.5,6c-0.1-0.1-0.1-0.2,0-0.3c0-0.1,0.2-0.1,0.3-0.1C41.9,5.7,41.9,5.8,41.8,5.9"
		/>
	<path class="st1" d="M42.2,5.9C42.2,6,42.1,6,42,6c-0.1,0-0.1-0.2,0-0.3c0-0.1,0.2-0.1,0.3-0.1C42.3,5.7,42.3,5.8,42.2,5.9"/>
	<path class="st1" d="M42.7,5.9c0,0.1-0.2,0.2-0.3,0.1c-0.1,0-0.1-0.2,0-0.3c0-0.1,0.2-0.1,0.3-0.1C42.8,5.7,42.8,5.8,42.7,5.9"/>
	<path class="st1" d="M43.2,5.9C43.1,6,43,6.1,42.9,6c-0.1-0.1-0.1-0.2,0-0.3c0-0.1,0.2-0.1,0.2-0.1C43.2,5.7,43.2,5.8,43.2,5.9"/>
	<path class="st1" d="M43.6,5.9C43.5,6,43.4,6.1,43.3,6c-0.1-0.1-0.1-0.2,0-0.3c0-0.1,0.2-0.1,0.3-0.1C43.7,5.7,43.7,5.8,43.6,5.9"
		/>
	<path class="st1" d="M44,5.9C43.9,6,43.8,6.1,43.8,6s-0.1-0.2,0-0.3c0-0.1,0.2-0.1,0.2-0.1C44.1,5.7,44.1,5.8,44,5.9"/>
	<path class="st1" d="M44.5,5.9c0,0.1-0.2,0.2-0.3,0.1c-0.1,0-0.1-0.2,0-0.3c0-0.1,0.2-0.1,0.3-0.1C44.6,5.7,44.6,5.8,44.5,5.9"/>
	<path class="st1" d="M44.9,5.9c0,0.1-0.2,0.2-0.3,0.1c-0.1-0.1-0.1-0.2,0-0.3c0-0.1,0.2-0.1,0.2-0.1C45,5.7,45,5.8,44.9,5.9"/>
	<path class="st1" d="M45.4,5.9C45.3,6,45.2,6.1,45.1,6c-0.1-0.1-0.1-0.2,0-0.3c0-0.1,0.2-0.1,0.3-0.1C45.5,5.7,45.5,5.8,45.4,5.9"
		/>
	<path class="st1" d="M45.8,5.9C45.8,6,45.7,6.1,45.6,6c-0.1-0.1-0.1-0.2,0-0.3c0-0.1,0.2-0.1,0.3-0.1C45.9,5.7,45.9,5.8,45.8,5.9"
		/>
	<path class="st1" d="M46.3,5.9C46.2,6,46.1,6.1,46,6c0,0,0,0,0,0c-0.1,0-0.1-0.2,0-0.3c0-0.1,0.2-0.1,0.3-0.1
		C46.3,5.7,46.3,5.8,46.3,5.9"/>
	<path class="st1" d="M46.7,5.9c0,0.1-0.2,0.2-0.3,0.1c-0.1,0-0.1-0.2,0-0.3c0-0.1,0.2-0.1,0.2-0.1C46.8,5.7,46.8,5.8,46.7,5.9"/>
	<path class="st1" d="M47.2,5.9C47.1,6,47,6.1,46.9,6c-0.1-0.1-0.1-0.2,0-0.3c0-0.1,0.2-0.1,0.3-0.1C47.3,5.7,47.3,5.8,47.2,5.9"/>
	<path class="st1" d="M47.6,5.9C47.6,6,47.5,6.1,47.4,6c-0.1-0.1-0.1-0.2,0-0.3c0-0.1,0.2-0.1,0.3-0.1C47.7,5.7,47.7,5.8,47.6,5.9"
		/>
	<path class="st1" d="M48.1,5.9C48,6,47.9,6.1,47.8,6c-0.1,0-0.1-0.2,0-0.3c0-0.1,0.1-0.1,0.2-0.1C48.1,5.7,48.1,5.8,48.1,5.9"/>
	<path class="st1" d="M48.5,5.9c0,0.1-0.2,0.2-0.3,0.1c-0.1,0-0.1-0.2,0-0.3c0-0.1,0.2-0.1,0.2-0.1C48.6,5.7,48.6,5.8,48.5,5.9"/>
	<path class="st1" d="M49,5.9C48.9,6,48.8,6.1,48.7,6c-0.1-0.1-0.1-0.2,0-0.3c0-0.1,0.2-0.1,0.2-0.1C49.1,5.7,49.1,5.8,49,5.9"/>
	<path class="st1" d="M49.4,5.9C49.3,6,49.2,6.1,49.2,6c-0.1-0.1-0.1-0.2,0-0.3c0-0.1,0.2-0.1,0.3-0.1C49.5,5.7,49.5,5.8,49.4,5.9"
		/>
	<path class="st1" d="M49.9,5.9C49.8,6,49.7,6,49.6,6c-0.1,0-0.1-0.2,0-0.3c0-0.1,0.2-0.1,0.3-0.1C49.9,5.7,49.9,5.8,49.9,5.9"/>
	<path class="st1" d="M50.3,5.9c0,0.1-0.2,0.2-0.3,0.1C50,6,50,5.8,50,5.7c0-0.1,0.2-0.1,0.3-0.1C50.3,5.7,50.3,5.8,50.3,5.9"/>
	<path class="st1" d="M50.8,5.9C50.7,6,50.6,6.1,50.5,6c-0.1-0.1-0.1-0.2,0-0.3c0-0.1,0.2-0.1,0.2-0.1C50.8,5.7,50.8,5.8,50.8,5.9"
		/>
	<path class="st1" d="M51.2,5.9C51.1,6,51,6.1,51,6c-0.1-0.1-0.1-0.2,0-0.3c0-0.1,0.2-0.1,0.3-0.1C51.3,5.7,51.3,5.8,51.2,5.9"/>
	<path class="st1" d="M51.7,5.9c0,0.1-0.2,0.2-0.3,0.1c-0.1,0-0.1-0.2,0-0.3c0-0.1,0.2-0.1,0.3-0.1C51.7,5.7,51.7,5.8,51.7,5.9"/>
	<path class="st1" d="M52.1,5.9c0,0.1-0.2,0.2-0.3,0.1c-0.1,0-0.1-0.2,0-0.3c0-0.1,0.2-0.1,0.3-0.1C52.2,5.7,52.2,5.8,52.1,5.9"/>
	<path class="st1" d="M52.5,5.9C52.5,6,52.4,6.1,52.3,6c-0.1-0.1-0.1-0.2,0-0.3c0-0.1,0.2-0.1,0.2-0.1C52.6,5.7,52.6,5.8,52.5,5.9"
		/>
	<path class="st1" d="M53,5.9C52.9,6,52.8,6.1,52.8,6c-0.1-0.1-0.1-0.2,0-0.3c0-0.1,0.2-0.1,0.2-0.1C53.1,5.7,53.1,5.8,53,5.9"/>
	<path class="st1" d="M53.4,5.9c0,0.1-0.2,0.2-0.3,0.1c-0.1,0-0.1-0.2,0-0.3c0-0.1,0.2-0.1,0.3-0.1C53.5,5.7,53.5,5.8,53.4,5.9"/>
	<path class="st1" d="M53.9,5.9c0,0.1-0.2,0.2-0.3,0.1c-0.1,0-0.1-0.2,0-0.3c0-0.1,0.2-0.1,0.3-0.1C54,5.7,54,5.8,53.9,5.9"/>
	<path class="st1" d="M50.8,5.3c-0.1,0.1-0.2,0.2-0.3,0.1c-0.1-0.1-0.1-0.2,0-0.3c0,0,0,0,0,0c0.1-0.1,0.2-0.2,0.2-0.1
		C50.8,5.1,50.8,5.3,50.8,5.3C50.8,5.3,50.8,5.3,50.8,5.3"/>
	<path class="st1" d="M50.3,5.3c0,0.1-0.2,0.2-0.3,0.1c-0.1,0-0.1-0.2,0-0.3c0-0.1,0.2-0.2,0.3-0.1C50.4,5.1,50.4,5.2,50.3,5.3"/>
	<path class="st1" d="M51.2,5.3c-0.1,0.1-0.2,0.2-0.2,0.1c-0.1-0.1-0.1-0.2,0-0.3c0,0,0,0,0,0c0-0.1,0.2-0.2,0.3-0.1
		C51.2,5.1,51.3,5.2,51.2,5.3"/>
	<path class="st1" d="M51.6,5.3c0,0.1-0.2,0.2-0.3,0.1c-0.1,0-0.1-0.2,0-0.3c0-0.1,0.2-0.2,0.3-0.1C51.7,5.1,51.7,5.2,51.6,5.3"/>
	<path class="st1" d="M52.1,5.3c0,0.1-0.2,0.2-0.3,0.1c-0.1,0-0.1-0.2,0-0.3S52,5,52.1,5.1S52.2,5.2,52.1,5.3"/>
	<path class="st1" d="M52.5,5.3c-0.1,0.1-0.2,0.2-0.3,0.1c-0.1-0.1-0.1-0.2,0-0.3c0,0,0,0,0,0c0.1-0.1,0.2-0.2,0.2-0.1
		C52.6,5.1,52.6,5.3,52.5,5.3C52.5,5.3,52.5,5.3,52.5,5.3"/>
	<path class="st1" d="M53,5.3c-0.1,0.1-0.2,0.2-0.2,0.1c-0.1-0.1-0.1-0.2,0-0.3c0,0,0,0,0,0c0-0.1,0.2-0.2,0.3-0.1
		C53.1,5.1,53.1,5.3,53,5.3C53,5.3,53,5.3,53,5.3"/>
	<path class="st1" d="M53.4,5.3c0,0.1-0.2,0.2-0.3,0.1c-0.1,0-0.1-0.2,0-0.3c0-0.1,0.2-0.2,0.3-0.1C53.5,5.1,53.5,5.2,53.4,5.3"/>
	<path class="st1" d="M53.8,5.3c0,0.1-0.2,0.2-0.3,0.1c-0.1,0-0.1-0.2,0-0.3c0-0.1,0.2-0.2,0.3-0.1C53.9,5.1,53.9,5.2,53.8,5.3"/>
	<path class="st1" d="M47.8,3.1c-0.1,0-0.1-0.3,0-0.4c0-0.1,0.1-0.1,0.2-0.1c0.1,0.1,0.1,0.2,0,0.3C47.9,3,47.8,3.2,47.8,3.1"/>
	<path class="st1" d="M48.2,3.1c-0.1,0-0.1-0.3,0-0.4c0-0.1,0.2-0.1,0.2-0.1c0.1,0.1,0.1,0.2,0,0.3C48.4,3,48.3,3.2,48.2,3.1"/>
	<path class="st1" d="M48.7,3.1c-0.1,0-0.1-0.3,0-0.4c0-0.1,0.2-0.1,0.3-0.1c0.1,0.1,0.1,0.2,0,0.3C48.9,3,48.7,3.2,48.7,3.1"/>
	<path class="st1" d="M49.1,3.1c-0.1,0-0.1-0.3,0-0.4c0-0.1,0.2-0.1,0.3-0.1c0.1,0.1,0.1,0.2,0,0.3C49.3,3,49.2,3.2,49.1,3.1"/>
	<path class="st1" d="M49.6,3.1c-0.1,0-0.1-0.3,0-0.4c0-0.1,0.2-0.1,0.3-0.1c0.1,0.1,0.1,0.2,0,0.3C49.8,3,49.6,3.2,49.6,3.1"/>
	<path class="st1" d="M50,3.1c-0.1,0-0.1-0.3,0-0.4c0-0.1,0.2-0.1,0.2-0.1c0.1,0.1,0.1,0.2,0,0.3C50.2,3,50.1,3.2,50,3.1"/>
	<path class="st1" d="M50.5,3.1c-0.1,0-0.1-0.3,0-0.4c0-0.1,0.2-0.1,0.3-0.1c0.1,0.1,0.1,0.2,0,0.3C50.6,3,50.5,3.2,50.5,3.1"/>
	<path class="st1" d="M50.9,3.1c-0.1,0-0.1-0.3,0-0.4c0-0.1,0.2-0.1,0.3-0.1c0.1,0.1,0.1,0.2,0,0.3C51.1,3,51,3.2,50.9,3.1"/>
	<path class="st2" d="M47.8,3.8c-0.1,0-0.1-0.3,0-0.4c0-0.1,0.1-0.1,0.2-0.1c0.1,0.1,0.1,0.2,0,0.3C47.9,3.7,47.8,3.8,47.8,3.8"/>
	<path class="st1" d="M48.2,3.8c-0.1,0-0.1-0.3,0-0.4c0-0.1,0.2-0.1,0.2-0.1c0.1,0.1,0.1,0.2,0,0.3C48.4,3.7,48.3,3.8,48.2,3.8"/>
	<path class="st1" d="M48.7,3.8c-0.1,0-0.1-0.3,0-0.4c0-0.1,0.2-0.1,0.3-0.1c0.1,0.1,0.1,0.2,0,0.3C48.9,3.7,48.7,3.8,48.7,3.8"/>
	<path class="st1" d="M49.1,3.8c-0.1,0-0.1-0.3,0-0.4c0-0.1,0.2-0.1,0.3-0.1c0.1,0.1,0.1,0.2,0,0.3C49.3,3.7,49.2,3.8,49.1,3.8"/>
	<path class="st1" d="M49.6,3.8c-0.1,0-0.1-0.3,0-0.4c0-0.1,0.2-0.1,0.3-0.1c0.1,0.1,0.1,0.2,0,0.3C49.8,3.7,49.6,3.8,49.6,3.8"/>
	<path class="st1" d="M50,3.8c-0.1,0-0.1-0.3,0-0.4c0-0.1,0.2-0.1,0.2-0.1c0.1,0.1,0.1,0.2,0,0.3C50.2,3.7,50.1,3.8,50,3.8"/>
	<path class="st1" d="M50.5,3.8c-0.1,0-0.1-0.3,0-0.4c0-0.1,0.2-0.1,0.3-0.1c0.1,0.1,0.1,0.2,0,0.3C50.6,3.7,50.5,3.8,50.5,3.8"/>
	<path class="st1" d="M50.9,3.8c-0.1,0-0.1-0.3,0-0.4c0-0.1,0.2-0.1,0.3-0.1c0.1,0.1,0.1,0.2,0,0.3C51.1,3.7,51,3.8,50.9,3.8"/>
	<path class="st1" d="M50.7,4.8c-0.1,0.1-0.2,0.2-0.3,0.1c-0.1-0.1-0.1-0.2,0-0.3c0,0,0,0,0,0c0.1-0.1,0.2-0.2,0.3-0.1
		C50.8,4.6,50.8,4.7,50.7,4.8C50.7,4.8,50.7,4.8,50.7,4.8"/>
	<path class="st1" d="M50.3,4.8c0,0.1-0.2,0.2-0.3,0.1c-0.1,0-0.1-0.2,0-0.3s0.2-0.2,0.2-0.1C50.3,4.6,50.3,4.7,50.3,4.8
		C50.3,4.8,50.3,4.8,50.3,4.8"/>
	<path class="st1" d="M49.8,4.8c0,0.1-0.2,0.2-0.3,0.1c-0.1,0-0.1-0.2,0-0.3c0-0.1,0.2-0.2,0.3-0.1C49.9,4.5,49.9,4.7,49.8,4.8"/>
	<path class="st1" d="M51.2,4.8c-0.1,0.1-0.2,0.2-0.2,0.1c-0.1-0.1-0.1-0.2,0-0.3c0,0,0,0,0,0c0-0.1,0.2-0.2,0.3-0.1
		C51.2,4.5,51.3,4.7,51.2,4.8"/>
	<path class="st1" d="M51.6,4.8c0,0.1-0.2,0.2-0.3,0.1c-0.1,0-0.1-0.2,0-0.3c0-0.1,0.2-0.2,0.3-0.1C51.7,4.5,51.7,4.7,51.6,4.8"/>
	<path class="st1" d="M52.1,4.8c0,0.1-0.2,0.2-0.3,0.1c-0.1,0-0.1-0.2,0-0.3s0.2-0.2,0.2-0.1S52.2,4.7,52.1,4.8"/>
	<path class="st1" d="M52.5,4.8c-0.1,0.1-0.2,0.2-0.3,0.1c-0.1-0.1-0.1-0.2,0-0.3c0,0,0,0,0,0c0.1-0.1,0.2-0.2,0.2-0.1
		C52.6,4.6,52.6,4.7,52.5,4.8C52.5,4.8,52.5,4.8,52.5,4.8"/>
	<path class="st1" d="M53,4.8c-0.1,0.1-0.2,0.2-0.2,0.1c-0.1-0.1-0.1-0.2,0-0.3c0,0,0,0,0,0c0-0.1,0.2-0.2,0.3-0.1
		C53.1,4.6,53.1,4.7,53,4.8C53,4.8,53,4.8,53,4.8"/>
	<path class="st1" d="M53.4,4.8c0,0.1-0.2,0.2-0.3,0.1c-0.1,0-0.1-0.2,0-0.3c0-0.1,0.2-0.2,0.3-0.1C53.5,4.5,53.5,4.7,53.4,4.8"/>
	<path class="st1" d="M53.8,4.8c0,0.1-0.2,0.2-0.3,0.1c-0.1,0-0.1-0.2,0-0.3c0-0.1,0.2-0.2,0.3-0.1C53.9,4.5,53.9,4.7,53.8,4.8"/>
</g>
<polygon class="st3" points="50.4,5.6 16.6,5.6 11.6,0.1 45,0.1 "/>
<polygon class="st4" points="51.3,2.6 3.1,2.6 1.5,0.9 49.3,0.9 "/>
<polygon class="st4" points="46.6,3.9 0.7,3.9 0.2,3.1 45.6,3.1 "/>
<polygon class="st5" points="45.6,4.7 1.3,4.7 1.3,4.7 45.6,4.7 "/>
<polygon class="st4" points="53.7,4.6 32.5,4.6 31.9,3.8 52.7,3.8 "/>
<line class="st6" x1="1.3" y1="5.4" x2="43" y2="5.4"/>
<polygon class="st4" points="52.9,7.6 2.8,7.6 1.3,6 51.1,6 "/>
<polygon class="st7" points="53.8,8.4 3.6,8.4 2.8,7.6 52.9,7.6 "/>
</svg>
