<svg xmlns="http://www.w3.org/2000/svg" width="54.228" height="28.027" viewBox="0 0 54.228 28.027">
  <g id="Group_189" data-name="Group 189" transform="translate(-657.406 -524.976)">
    <g id="noun_Foot_Over_Bridge_112190" data-name="noun_Foot Over Bridge_112190" transform="translate(657.57 525.137)">
      <path id="Path_31" data-name="Path 31" d="M6.126,37.759l23.188-6.232v-.546L6.126,37.409Z" transform="translate(-5.487 -25.491)" stroke="#000" stroke-width="0.3"/>
      <path id="Path_32" data-name="Path 32" d="M17.2,46.255l4.631,3.018,2.324.1,7.1,4.8v.715h-.474l-6.481-4.41-2.355-.026L15.87,46.449Z" transform="translate(-9.374 -31.584)" stroke="#000" stroke-width="0.3"/>
      <path id="Path_33" data-name="Path 33" d="M14.784,46.694l.495-.063,6.193,4.047,2.37.045,6.386,4.319h-.451l-6.109-4.084-2.315-.019Z" transform="translate(-8.941 -31.734)" stroke="#000" stroke-width="0.3"/>
      <path id="Path_34" data-name="Path 34" d="M13.6,46.763l-1.457.221L18,51.058l2.149-.043Z" transform="translate(-7.889 -31.787)" stroke="#000" stroke-width="0.3"/>
      <path id="Path_35" data-name="Path 35" d="M26.34,54.181l5.669,3.633,2.234.143-5.972-4.019-1.931.006Z" transform="translate(-13.551 -34.649)" stroke="#000" stroke-width="0.3"/>
      <path id="Path_36" data-name="Path 36" d="M23.464,54.089l.09.031-.01,4.084.9.066h.443l-.475-.585-.047-2.862.727-.646v-.238H23.464Z" transform="translate(-12.404 -34.649)" stroke="#000" stroke-width="0.3"/>
      <path id="Path_37" data-name="Path 37" d="M48.239,23.322l4.979,1.3v7.229l-.546.819v13.3l.546.682V49.58H50.489l.521-17.127.707-1.628v-4.5l-3.478,1.023Z" transform="translate(-22.288 -22.435)" stroke="#000" stroke-width="0.3"/>
      <path id="Path_38" data-name="Path 38" d="M46.624,50.237H43.1l.926-3.325,1-.819L45.1,32.717l-.64-.921-.128-8.261.844.255.665.179-.026,6.547.813,1.586Z" transform="translate(-20.235 -22.52)" stroke="#000" stroke-width="0.3"/>
      <path id="Path_39" data-name="Path 39" d="M5.7,47.023v6.368L5.19,53.9l-.127,1.458h1.1l.153-8.338Z" transform="translate(-5.063 -31.891)" stroke="#000" stroke-width="0.3"/>
      <path id="Path_40" data-name="Path 40" d="M10.846,47.023v6.368l.512.512.127,1.458h-1.1l-.153-8.338Z" transform="translate(-7.125 -31.891)" stroke="#000" stroke-width="0.3"/>
      <path id="Path_41" data-name="Path 41" d="M47.912,33.875l3.529.332v.767l-.691,1.612H48.7l.077-.487-.87-1.432Z" transform="translate(-22.157 -26.645)" stroke="#000" stroke-width="0.3"/>
      <path id="Path_42" data-name="Path 42" d="M56.56,36.13l7.493,5.933,3.76.206L79.3,51.705v1.408H78.53L68.044,44.442l-3.811-.051L56,37.869l.562-.69Z" transform="translate(-25.383 -27.545)" stroke="#000" stroke-width="0.3"/>
      <path id="Path_43" data-name="Path 43" d="M56,40.047v-.768l8.183,6.509,3.837.09,10.333,8.492h-.729l-9.886-8.031L63.99,46.3Z" transform="translate(-25.383 -28.801)" stroke="#000" stroke-width="0.3"/>
      <rect id="Rectangle_35" data-name="Rectangle 35" width="2.046" height="0.537" transform="translate(26.548 9.941)" stroke="#000" stroke-width="0.3"/>
      <path id="Path_44" data-name="Path 44" d="M30.25,40.062V38.288l-.565-.82L6.126,42.77v.441H9.655Z" transform="translate(-5.487 -28.079)" stroke="#000" stroke-width="0.3"/>
      <path id="Path_45" data-name="Path 45" d="M49.231,40.583h.844l1.2-.307v-.614H49.231Z" transform="translate(-22.683 -28.954)" stroke="#000" stroke-width="0.3"/>
      <path id="Path_46" data-name="Path 46" d="M29.424,22.862,26.44,21.847,7.014,30.189,5.736,32.418v4l23.816-5.294Zm-.46,6.215L6.15,34.942V33.015l.751-.222V30.61L26,22.426v3.717l2.967-1.023v3.957Z" transform="translate(-5.331 -21.847)" stroke="#000" stroke-width="0.3"/>
      <path id="Path_47" data-name="Path 47" d="M50.2,41.222l1.313.972.153-1.313Z" transform="translate(-23.068 -29.44)" stroke="#000" stroke-width="0.3"/>
      <path id="Path_48" data-name="Path 48" d="M55.869,40.881v2.83l4.348,3.36,3.479-.085Z" transform="translate(-25.331 -29.44)" stroke="#000" stroke-width="0.3"/>
      <path id="Path_49" data-name="Path 49" d="M70.309,51.713l9.173,7.145,3.615.281-9.664-7.9-3.124.013Z" transform="translate(-31.092 -33.571)" stroke="#000" stroke-width="0.3"/>
      <path id="Path_50" data-name="Path 50" d="M65.655,51.534l.145.06-.017,8.03,1.458.129h.716L67.19,58.6l-.076-5.627L68.291,51.7v-.469H65.655Z" transform="translate(-29.235 -33.571)" stroke="#000" stroke-width="0.3"/>
    </g>
  </g>
</svg>
